<svg width="46" height="46" viewBox="0 0 46 46" fill="none" xmlns="http://www.w3.org/2000/svg">
<rect width="46" height="46" rx="23" fill="#E2E8F0"/>
<g clip-path="url(#clip0_2820_12500)">
<path d="M28.6448 7C28.7131 7 28.7814 7 28.8535 7C29.0209 9.04514 28.2313 10.5733 27.2717 11.6799C26.3302 12.7789 25.0408 13.8447 22.9554 13.683C22.8163 11.6672 23.6072 10.2524 24.5655 9.14829C25.4543 8.11935 27.0837 7.20375 28.6448 7Z" fill="#64748B"/>
<path d="M34.9579 28.2869C34.9579 28.3072 34.9579 28.3251 34.9579 28.3442C34.3718 30.099 33.5358 31.6029 32.5157 32.9986C31.5844 34.2657 30.4432 35.9708 28.4054 35.9708C26.6446 35.9708 25.475 34.8514 23.6705 34.8209C21.7615 34.7903 20.7117 35.7569 18.9664 36.0001C18.7668 36.0001 18.5671 36.0001 18.3713 36.0001C17.0897 35.8167 16.0554 34.8132 15.3018 33.9091C13.0799 31.2374 11.3629 27.7864 11.0435 23.3701C11.0435 22.9372 11.0435 22.5055 11.0435 22.0725C11.1787 18.9118 12.7321 16.342 14.7969 15.0966C15.8866 14.4344 17.3847 13.8703 19.0527 14.1224C19.7676 14.2319 20.4979 14.4739 21.1381 14.7133C21.7448 14.9438 22.5035 15.3526 23.2222 15.3309C23.7091 15.3169 24.1934 15.066 24.6842 14.889C26.1217 14.3758 27.5308 13.7875 29.3882 14.0638C31.6205 14.3975 33.2048 15.378 34.1837 16.8909C32.2954 18.079 30.8025 19.8694 31.0576 22.927C31.2843 25.7043 32.9175 27.3292 34.9579 28.2869Z" fill="#64748B"/>
</g>
<defs>
<clipPath id="clip0_2820_12500">
<rect width="24" height="29" fill="white" transform="translate(11 7)"/>
</clipPath>
</defs>
</svg>
