<svg width="46" height="46" viewBox="0 0 46 46" fill="none" xmlns="http://www.w3.org/2000/svg">
<rect width="46" height="46" rx="23" fill="#E2E8F0"/>
<g clip-path="url(#clip0_2820_12499)">
<path d="M35.48 23.2956C35.48 22.3737 35.3973 21.4874 35.2436 20.6365H23V25.671H29.9964C29.6891 27.2901 28.7673 28.661 27.3845 29.5828V32.8565H31.6036C34.0618 30.5874 35.48 27.2547 35.48 23.2956Z" fill="#4285F4"/>
<path d="M23 36.0001C26.51 36.0001 29.4527 34.8419 31.6036 32.8565L27.3845 29.5828C26.2263 30.3628 24.7491 30.8356 23 30.8356C19.62 30.8356 16.7482 28.5547 15.72 25.4819H11.3945V28.8383C13.5336 33.081 17.9182 36.0001 23 36.0001Z" fill="#34A853"/>
<path d="M15.72 25.4699C15.46 24.6899 15.3064 23.8627 15.3064 22.9999C15.3064 22.1372 15.46 21.3099 15.72 20.5299V17.1736H11.3945C10.5082 18.9227 10 20.8963 10 22.9999C10 25.1036 10.5082 27.0772 11.3945 28.8263L14.7627 26.2027L15.72 25.4699Z" fill="#FBBC05"/>
<path d="M23 15.1764C24.9145 15.1764 26.6163 15.8382 27.9754 17.1145L31.6982 13.3918C29.4409 11.2882 26.51 10 23 10C17.9182 10 13.5336 12.9191 11.3945 17.1736L15.72 20.53C16.7482 17.4573 19.62 15.1764 23 15.1764Z" fill="#EA4335"/>
</g>
<defs>
<clipPath id="clip0_2820_12499">
<rect width="26" height="26" fill="white" transform="translate(10 10)"/>
</clipPath>
</defs>
</svg>
