<svg width="46" height="46" viewBox="0 0 46 46" fill="none" xmlns="http://www.w3.org/2000/svg">
<rect width="46" height="46" rx="23" fill="#FFDE00"/>
<path d="M23 10C15.268 10 9 15.1643 9 21.5347C9 25.6532 11.6204 29.2671 15.5622 31.3078C15.3478 32.0806 14.1842 36.2795 14.1379 36.6093C14.1379 36.6093 14.11 36.8572 14.2636 36.9517C14.4172 37.0462 14.5978 36.9728 14.5978 36.9728C15.0383 36.9085 19.7056 33.4827 20.5134 32.8879C21.3204 33.0073 22.1514 33.0693 23 33.0693C30.732 33.0693 37 27.9052 37 21.5347C37 15.1643 30.732 10 23 10Z" fill="#462700"/>
</svg>
